<?xml version="1.0" encoding="UTF-8" standalone="no"?>
<!DOCTYPE svg PUBLIC "-//W3C//DTD SVG 20010904//EN"
              "http://www.w3.org/TR/2001/REC-SVG-20010904/DTD/svg10.dtd">

<svg xmlns="http://www.w3.org/2000/svg"
     width="14.5556in" height="6.86111in"
     viewBox="0 0 1048 494">
  <path id="Auswahl"
        fill="white" stroke="none" stroke-width="0"
        d="M 119.00,14.53
           C 135.65,27.47 127.95,45.62 115.00,49.21
             103.88,52.29 88.48,38.62 74.00,38.04
             59.79,37.47 40.78,49.73 47.15,66.00
             51.80,77.89 68.16,82.66 79.00,87.00
             103.67,96.87 130.24,103.44 138.96,132.00
             140.31,136.43 140.94,140.38 141.00,145.00
             141.14,157.00 141.38,163.33 137.31,175.00
             126.01,207.37 96.47,221.38 64.00,221.00
             50.30,220.84 28.62,214.97 17.00,207.77
             10.28,203.60 4.48,198.42 4.04,190.00
             3.50,179.59 9.00,171.32 20.00,171.02
             30.65,170.72 33.63,174.26 43.00,178.00
             58.65,184.25 77.12,188.79 90.98,175.90
             94.38,172.74 96.22,170.15 98.21,166.00
             100.29,161.69 102.22,155.83 101.81,151.00
             100.15,131.21 73.52,125.18 58.00,120.00
             47.79,116.59 34.34,111.45 26.00,104.69
             10.11,91.79 5.77,78.75 6.00,59.00
             6.09,51.70 8.01,43.53 11.27,37.00
             15.71,28.11 21.81,21.01 30.00,15.35
             41.31,7.53 49.56,4.63 63.00,2.43
             81.82,0.10 103.60,2.55 119.00,14.53 Z
           M 337.00,138.00
           C 337.00,138.00 337.00,201.00 337.00,201.00
             336.75,219.36 317.20,227.12 305.10,215.79
             299.54,210.58 299.01,205.11 299.08,198.00
             299.08,198.00 299.08,47.00 299.08,47.00
             299.08,47.00 299.08,30.00 299.08,30.00
             299.08,30.00 299.08,17.00 299.08,17.00
             301.09,7.11 309.30,1.62 319.00,2.04
             328.84,2.47 332.86,8.64 338.14,16.00
             338.14,16.00 354.34,39.00 354.34,39.00
             354.34,39.00 399.98,104.00 399.98,104.00
             399.98,104.00 432.00,149.00 432.00,149.00
             432.00,149.00 432.00,120.00 432.00,120.00
             432.00,120.00 431.00,103.00 431.00,103.00
             431.00,103.00 431.00,66.00 431.00,66.00
             431.00,66.00 431.00,27.00 431.00,27.00
             431.01,21.04 431.37,15.13 434.85,10.01
             441.68,-0.01 456.46,-0.94 464.47,8.18
             468.80,13.11 468.99,16.84 469.00,23.00
             469.00,23.00 469.00,176.00 469.00,176.00
             469.00,176.00 468.36,208.00 468.36,208.00
             465.89,216.55 457.67,221.51 449.00,220.90
             439.41,220.23 435.48,214.07 430.42,207.00
             430.42,207.00 414.86,185.00 414.86,185.00
             414.86,185.00 360.42,108.00 360.42,108.00
             360.42,108.00 337.00,75.00 337.00,75.00
             337.00,75.00 337.00,138.00 337.00,138.00 Z
           M 608.98,14.53
           C 620.08,23.18 622.09,39.92 608.98,47.44
             600.75,52.15 591.73,47.93 584.00,44.25
             574.85,39.91 564.11,36.06 554.00,39.22
             542.81,42.72 532.24,53.51 536.99,66.00
             541.85,78.77 559.44,83.17 571.00,87.80
             595.45,97.58 620.73,104.63 628.96,133.00
             630.22,137.33 630.94,142.49 631.00,147.00
             631.13,158.77 630.02,167.97 625.55,179.00
             622.00,187.75 617.65,193.40 611.00,200.00
             594.72,216.16 576.40,221.26 554.00,221.00
             540.72,220.84 518.25,214.92 507.00,207.94
             500.13,203.67 494.32,198.54 493.53,190.00
             492.19,175.52 505.02,168.33 518.00,171.76
             518.00,171.76 538.00,180.19 538.00,180.19
             551.04,185.14 567.37,186.64 578.99,177.47
             582.26,174.89 584.79,171.58 586.91,168.00
             589.21,164.11 590.68,159.46 591.37,155.00
             594.70,133.60 565.28,125.81 550.00,120.67
             535.96,115.94 522.12,111.19 511.04,100.83
             497.09,87.79 495.80,74.73 496.00,57.00
             496.08,50.46 497.80,43.97 500.44,38.00
             504.21,29.47 512.45,20.38 520.00,15.04
             530.70,7.48 540.29,4.51 553.00,2.43
             571.59,0.13 593.79,2.67 608.98,14.53 Z
           M 254.00,183.00
           C 259.05,183.02 262.77,183.17 266.90,186.56
             275.47,193.57 275.49,209.12 264.00,215.99
             260.27,218.22 257.14,217.99 253.00,218.00
             253.00,218.00 183.00,218.00 183.00,218.00
             166.79,217.92 163.02,207.17 163.00,193.00
             163.00,193.00 163.00,30.00 163.00,30.00
             163.02,19.79 165.07,9.51 176.00,5.61
             180.16,4.13 184.64,4.01 189.00,4.00
             189.00,4.00 247.00,4.00 247.00,4.00
             254.39,4.01 260.48,4.13 265.79,10.04
             272.92,17.98 271.08,32.15 261.98,37.85
             258.17,40.25 255.28,39.99 251.00,40.00
             251.00,40.00 201.00,40.00 201.00,40.00
             201.00,40.00 201.00,93.00 201.00,93.00
             201.00,93.00 239.00,93.00 239.00,93.00
             245.60,93.00 253.15,92.36 258.99,96.00
             268.62,102.00 269.69,115.91 261.79,123.79
             257.26,128.30 252.03,128.97 246.00,129.00
             246.00,129.00 201.00,129.00 201.00,129.00
             201.00,129.00 201.00,183.00 201.00,183.00
             201.00,183.00 254.00,183.00 254.00,183.00 Z
           M 744.00,183.00
           C 763.31,183.10 768.19,203.55 756.90,213.66
             752.07,217.98 748.05,217.99 742.00,218.00
             742.00,218.00 673.00,218.00 673.00,218.00
             657.58,217.93 653.02,209.13 653.00,195.00
             653.00,195.00 653.00,49.00 653.00,49.00
             653.00,49.00 653.00,33.00 653.00,33.00
             653.00,20.30 653.07,9.02 668.00,4.93
             671.61,3.94 674.33,4.01 678.00,4.00
             678.00,4.00 737.00,4.00 737.00,4.00
             744.13,4.01 750.58,4.47 755.78,10.10
             763.41,18.39 760.46,32.48 751.00,38.15
             747.52,40.23 743.89,39.99 740.00,40.00
             740.00,40.00 691.00,40.00 691.00,40.00
             691.00,40.00 691.00,93.00 691.00,93.00
             691.00,93.00 735.00,93.00 735.00,93.00
             740.86,93.03 746.16,93.49 750.82,97.53
             760.53,105.96 758.01,121.02 746.99,126.95
             741.75,129.77 733.92,129.00 728.00,129.00
             728.00,129.00 691.00,129.00 691.00,129.00
             691.00,129.00 691.00,183.00 691.00,183.00
             691.00,183.00 744.00,183.00 744.00,183.00 Z
           M 620.91,249.02
           C 626.75,253.93 631.57,261.01 629.58,269.00
             627.56,277.17 620.40,278.99 613.00,277.67
             607.44,276.68 602.97,272.82 598.00,270.37
             591.64,267.24 585.05,265.85 578.00,266.01
             548.72,266.69 535.71,298.91 536.00,324.00
             536.33,352.18 551.64,379.73 583.00,378.99
             589.11,378.84 596.51,377.33 602.00,374.63
             606.70,372.31 611.92,367.99 617.00,367.21
             624.90,365.99 631.50,369.74 632.79,378.00
             634.31,387.78 628.65,392.98 621.00,397.77
             607.54,406.21 592.56,408.18 577.00,408.00
             570.63,407.92 563.06,406.60 557.00,404.66
             522.74,393.68 505.16,359.35 505.00,325.00
             504.92,308.20 508.16,289.85 516.31,275.00
             524.60,259.90 537.64,247.54 554.00,241.70
             562.81,238.55 567.29,238.67 576.00,237.42
             589.36,235.80 610.48,240.24 620.91,249.02 Z
           M 725.00,285.37
           C 763.27,304.24 768.59,362.81 739.99,392.00
             734.32,397.78 730.51,400.95 723.00,404.13
             715.61,407.24 707.93,408.09 700.00,408.00
             640.73,407.31 626.87,319.14 672.00,289.10
             682.06,282.41 689.31,281.28 701.00,280.71
             709.98,280.91 716.71,281.28 725.00,285.37 Z
           M 823.00,410.00
           C 772.58,409.41 759.36,338.72 784.44,303.00
             800.79,279.72 832.92,271.92 855.00,292.00
             858.47,278.21 873.30,277.33 880.57,287.02
             883.33,290.69 882.99,293.68 883.00,298.00
             883.00,298.00 883.00,401.00 883.00,401.00
             882.95,434.85 858.53,457.64 825.00,456.98
             817.82,456.84 805.77,454.72 799.00,452.30
             791.19,449.51 780.56,443.72 776.92,436.00
             772.40,426.44 779.48,416.22 790.00,417.11
             796.78,417.68 803.58,423.84 810.00,426.54
             825.80,433.17 844.70,430.48 851.91,413.00
             853.78,408.46 854.77,403.89 855.00,399.00
             844.37,407.46 836.49,410.15 823.00,410.00 Z
           M 677.36,361.00
           C 681.01,372.18 687.55,380.58 700.00,381.67
             711.98,382.72 720.74,374.38 725.13,364.00
             728.64,355.68 728.10,348.78 728.00,340.00
             727.79,322.41 717.58,305.24 698.00,307.32
             675.51,312.43 671.20,342.13 677.36,361.00 Z
           M 813.09,313.34
           C 796.52,327.92 795.23,380.10 828.00,382.81
             839.48,383.76 850.06,375.65 853.53,365.00
             855.58,358.72 855.08,348.80 855.00,342.00
             854.76,321.81 846.66,305.84 824.00,308.32
             819.77,309.28 816.43,310.40 813.09,313.34 Z" />
  <path id="Auswahl #1"
        fill="#f29200" stroke="none" stroke-width="0"
        d="M 987.00,241.00
           C 1002.39,256.49 1009.13,266.62 1018.75,286.00
             1043.01,334.85 1037.40,395.93 1007.48,441.00
             999.37,453.23 991.58,461.84 981.00,471.96
             978.11,474.72 967.72,482.31 966.84,485.17
             965.77,488.65 968.94,492.19 973.00,491.17
             976.02,490.42 981.49,485.53 984.00,483.41
             998.30,471.35 1009.32,457.71 1019.31,442.00
             1023.47,435.45 1028.68,424.31 1031.60,417.00
             1050.50,369.75 1047.19,316.82 1023.29,272.00
             1016.21,258.71 1007.57,246.86 997.09,236.04
             993.26,232.09 989.11,226.24 983.15,226.66
             976.31,231.20 983.18,237.15 987.00,241.00 Z
           M 963.23,256.00
           C 963.23,256.00 971.71,265.00 971.71,265.00
             977.44,271.53 983.31,279.56 987.80,287.00
             1013.09,328.89 1011.68,384.27 984.64,425.00
             979.60,432.61 969.77,444.81 963.00,450.71
             959.66,453.62 949.95,460.22 948.84,464.03
             947.81,467.62 950.48,470.10 954.02,469.67
             957.07,469.29 960.65,466.44 963.00,464.54
             974.43,455.32 984.63,444.40 992.57,432.00
             1021.03,387.52 1024.06,330.46 998.14,284.00
             992.51,273.91 984.95,263.34 976.96,255.00
             973.38,251.27 970.34,247.33 965.04,246.66
             959.57,248.55 959.90,251.86 963.23,256.00 Z
           M 946.31,274.00
           C 946.31,274.00 957.54,286.00 957.54,286.00
             963.70,293.52 969.26,303.02 972.99,312.00
             986.70,345.05 983.49,383.26 963.25,413.00
             958.08,420.60 950.85,428.71 944.00,434.83
             944.00,434.83 936.06,441.30 936.06,441.30
             929.25,447.72 934.58,451.63 938.02,451.35
             940.88,451.11 944.77,447.77 947.00,446.00
             954.69,439.88 961.59,432.79 967.57,425.00
             993.84,390.84 998.94,340.62 979.75,302.00
             974.19,290.80 968.80,282.03 959.99,273.00
             956.42,269.34 953.34,265.10 948.06,264.58
             943.13,266.51 943.36,270.06 946.31,274.00 Z
           M 926.28,296.00
           C 926.28,296.00 932.83,303.00 932.83,303.00
             938.68,309.56 943.74,317.69 946.66,326.00
             955.83,352.17 952.77,378.83 935.33,401.00
             932.34,404.81 926.68,410.55 923.00,413.70
             923.00,413.70 914.74,420.51 914.74,420.51
             911.87,424.28 914.08,429.18 919.02,428.48
             925.18,427.60 937.57,414.85 941.70,410.00
             962.77,385.29 967.29,348.66 954.99,319.00
             950.87,309.07 946.23,302.15 939.25,294.01
             935.73,289.91 932.85,286.40 927.12,286.49
             922.28,288.75 923.39,292.31 926.28,296.00 Z
           M 479.00,314.88
           C 464.82,305.06 440.53,291.21 423.00,291.00
             423.00,291.00 418.00,291.00 418.00,291.00
             399.86,291.03 381.99,300.87 367.00,310.32
             359.80,314.86 347.24,322.71 342.00,329.00
             356.76,340.79 369.12,348.83 386.00,357.25
             395.72,362.09 410.03,367.23 421.00,366.63
             437.15,365.74 457.32,354.65 471.00,346.40
             478.55,341.84 491.53,334.47 497.00,328.00
             497.00,328.00 479.00,314.88 479.00,314.88 Z
           M 440.47,312.01
           C 452.37,327.23 444.40,350.87 425.00,354.53
             395.78,360.06 381.86,324.15 403.00,307.39
             406.55,304.57 409.69,303.49 414.00,302.47
             424.29,301.03 433.82,303.52 440.47,312.01 Z
           M 907.46,319.17
           C 910.22,322.31 912.27,324.36 914.53,328.00
             924.75,344.46 924.61,365.09 913.21,381.00
             906.37,390.56 897.16,395.38 895.47,397.38
             892.31,401.11 894.69,405.76 899.02,405.58
             905.15,405.33 915.85,394.62 919.48,390.00
             934.04,371.49 936.25,344.44 924.38,324.00
             920.70,317.64 915.69,309.39 908.02,307.85
             900.36,309.90 903.89,315.10 907.46,319.17 Z
           M 390.00,308.00
           C 390.00,308.00 385.15,319.72 385.15,319.72
             381.89,331.44 385.53,338.61 390.00,349.00
             381.77,346.40 362.21,334.62 357.00,328.00
             363.69,322.35 381.86,310.57 390.00,308.00 Z
           M 482.00,329.00
           C 474.28,334.15 457.27,345.39 449.00,348.00
             453.93,338.38 456.45,330.76 453.51,320.00
             453.51,320.00 449.00,308.00 449.00,308.00
             458.31,312.01 475.63,321.47 482.00,329.00 Z" />
</svg>
