<?xml version="1.0" encoding="utf-8"?>
<!-- Generator: Adobe Illustrator 22.0.1, SVG Export Plug-In . SVG Version: 6.00 Build 0)  -->
<svg version="1.1" id="Ebene_1" xmlns="http://www.w3.org/2000/svg" xmlns:xlink="http://www.w3.org/1999/xlink" x="0px" y="0px"
	 viewBox="0 0 1048 494" style="enable-background:new 0 0 1048 494;" xml:space="preserve">
<style type="text/css">
	.st0{fill:#5A5A59;}
	.st1{fill:#F29200;}
</style>
<path id="Auswahl" class="st0" d="M119,14.5c16.6,12.9,8.9,31.1-4,34.7C103.9,52.3,88.5,38.6,74,38c-14.2-0.6-33.2,11.7-26.8,28
	c4.6,11.9,21,16.7,31.8,21c24.7,9.9,51.2,16.4,60,45c1.3,4.4,2,8.4,2,13c0.1,12,0.4,18.3-3.7,30C126,207.4,96.5,221.4,64,221
	c-13.7-0.2-35.4-6-47-13.2c-6.7-4.2-12.5-9.4-13-17.8c-0.5-10.4,5-18.7,16-19c10.6-0.3,13.6,3.2,23,7c15.7,6.3,34.1,10.8,48-2.1
	c3.4-3.2,5.2-5.8,7.2-9.9c2.1-4.3,4-10.2,3.6-15c-1.7-19.8-28.3-25.8-43.8-31c-10.2-3.4-23.7-8.6-32-15.3C10.1,91.8,5.8,78.8,6,59
	c0.1-7.3,2-15.5,5.3-22c4.4-8.9,10.5-16,18.7-21.6C41.3,7.5,49.6,4.6,63,2.4C81.8,0.1,103.6,2.5,119,14.5z M337,138v63
	c-0.3,18.4-19.8,26.1-31.9,14.8c-5.6-5.2-6.1-10.7-6-17.8V47V30V17c2-9.9,10.2-15.4,19.9-15c9.8,0.4,13.9,6.6,19.1,14l16.2,23
	l45.6,65l32,45v-29l-1-17V66V27c0-6,0.4-11.9,3.9-17c6.8-10,21.6-10.9,29.6-1.8c4.3,4.9,4.5,8.7,4.5,14.8v153l-0.6,32
	c-2.5,8.6-10.7,13.5-19.4,12.9c-9.6-0.7-13.5-6.8-18.6-13.9l-15.6-22l-54.4-77L337,75V138z M609,14.5c11.1,8.7,13.1,25.4,0,32.9
	c-8.2,4.7-17.3,0.5-25-3.2c-9.2-4.3-19.9-8.2-30-5c-11.2,3.5-21.8,14.3-17,26.8c4.9,12.8,22.5,17.2,34,21.8
	c24.5,9.8,49.7,16.8,58,45.2c1.3,4.3,2,9.5,2,14c0.1,11.8-1,21-5.5,32c-3.5,8.8-7.9,14.4-14.5,21c-16.3,16.2-34.6,21.3-57,21
	c-13.3-0.2-35.8-6.1-47-13.1c-6.9-4.3-12.7-9.4-13.5-17.9c-1.3-14.5,11.5-21.7,24.5-18.2l20,8.4c13,4.9,29.4,6.4,41-2.7
	c3.3-2.6,5.8-5.9,7.9-9.5c2.3-3.9,3.8-8.5,4.5-13c3.3-21.4-26.1-29.2-41.4-34.3c-14-4.7-27.9-9.5-39-19.8c-14-13-15.2-26.1-15-43.8
	c0.1-6.5,1.8-13,4.4-19c3.8-8.5,12-17.6,19.6-23c10.7-7.6,20.3-10.5,33-12.6C571.6,0.1,593.8,2.7,609,14.5z M254,183
	c5,0,8.8,0.2,12.9,3.6c8.6,7,8.6,22.6-2.9,29.4c-3.7,2.2-6.9,2-11,2h-70c-16.2-0.1-20-10.8-20-25V30c0-10.2,2.1-20.5,13-24.4
	c4.2-1.5,8.6-1.6,13-1.6h58c7.4,0,13.5,0.1,18.8,6c7.1,7.9,5.3,22.1-3.8,27.8c-3.8,2.4-6.7,2.1-11,2.2h-50v53h38
	c6.6,0,14.1-0.6,20,3c9.6,6,10.7,19.9,2.8,27.8c-4.5,4.5-9.8,5.2-15.8,5.2h-45v54H254z M744,183c19.3,0.1,24.2,20.6,12.9,30.7
	c-4.8,4.3-8.9,4.3-14.9,4.3h-69c-15.4-0.1-20-8.9-20-23V49V33c0-12.7,0.1-24,15-28.1c3.6-1,6.3-0.9,10-0.9h59
	c7.1,0,13.6,0.5,18.8,6.1c7.6,8.3,4.7,22.4-4.8,28.1c-3.5,2.1-7.1,1.8-11,1.8h-49v53h44c5.9,0,11.2,0.5,15.8,4.5
	c9.7,8.4,7.2,23.5-3.8,29.4c-5.2,2.8-13.1,2.1-19,2.1h-37v54H744z M620.9,249c5.8,4.9,10.7,12,8.7,20c-2,8.2-9.2,10-16.6,8.7
	c-5.6-1-10-4.9-15-7.3c-6.4-3.1-13-4.5-20-4.4c-29.3,0.7-42.3,32.9-42,58c0.3,28.2,15.6,55.7,47,55c6.1-0.1,13.5-1.7,19-4.4
	c4.7-2.3,9.9-6.6,15-7.4c7.9-1.2,14.5,2.5,15.8,10.8c1.5,9.8-4.1,15-11.8,19.8c-13.5,8.4-28.4,10.4-44,10.2
	c-6.4-0.1-13.9-1.4-20-3.3c-34.3-11-51.8-45.3-52-79.7c-0.1-16.8,3.2-35.1,11.3-50c8.3-15.1,21.3-27.5,37.7-33.3
	c8.8-3.1,13.3-3,22-4.3C589.4,235.8,610.5,240.2,620.9,249z M725,285.4c38.3,18.9,43.6,77.4,15,106.6c-5.7,5.8-9.5,9-17,12.1
	c-7.4,3.1-15.1,4-23,3.9c-59.3-0.7-73.1-88.9-28-118.9c10.1-6.7,17.3-7.8,29-8.4C710,280.9,716.7,281.3,725,285.4z M823,410
	c-50.4-0.6-63.6-71.3-38.6-107c16.3-23.3,48.5-31.1,70.6-11c3.5-13.8,18.3-14.7,25.6-5c2.8,3.7,2.4,6.7,2.4,11v103
	c0,33.9-24.5,56.6-58,56c-7.2-0.1-19.2-2.3-26-4.7c-7.8-2.8-18.4-8.6-22.1-16.3c-4.5-9.6,2.6-19.8,13.1-18.9
	c6.8,0.6,13.6,6.7,20,9.4c15.8,6.6,34.7,3.9,41.9-13.5c1.9-4.5,2.9-9.1,3.1-14C844.4,407.5,836.5,410.1,823,410z M677.4,361
	c3.7,11.2,10.2,19.6,22.6,20.7c12,1,20.7-7.3,25.1-17.7c3.5-8.3,3-15.2,2.9-24c-0.2-17.6-10.4-34.8-30-32.7
	C675.5,312.4,671.2,342.1,677.4,361z M813.1,313.3c-16.6,14.6-17.9,66.8,14.9,69.5c11.5,1,22.1-7.2,25.5-17.8c2-6.3,1.5-16.2,1.5-23
	c-0.2-20.2-8.3-36.2-31-33.7C819.8,309.3,816.4,310.4,813.1,313.3z"/>
<path id="Auswahl__x23_1" class="st1" d="M987,241c15.4,15.5,22.1,25.6,31.8,45c24.3,48.9,18.6,109.9-11.3,155
	c-8.1,12.2-15.9,20.8-26.5,31c-2.9,2.8-13.3,10.4-14.2,13.2c-1.1,3.5,2.1,7,6.2,6c3-0.8,8.5-5.6,11-7.8
	c14.3-12.1,25.3-25.7,35.3-41.4c4.2-6.5,9.4-17.7,12.3-25c18.9-47.3,15.6-100.2-8.3-145c-7.1-13.3-15.7-25.1-26.2-36
	c-3.8-3.9-8-9.8-13.9-9.4C976.3,231.2,983.2,237.1,987,241z M963.2,256l8.5,9c5.7,6.5,11.6,14.6,16.1,22
	c25.3,41.9,23.9,97.3-3.2,138c-5,7.6-14.9,19.8-21.6,25.7c-3.3,2.9-13,9.5-14.2,13.3c-1,3.6,1.6,6.1,5.2,5.6c3-0.4,6.6-3.2,9-5.1
	c11.4-9.2,21.6-20.1,29.6-32.5c28.5-44.5,31.5-101.5,5.6-148c-5.6-10.1-13.2-20.7-21.2-29c-3.6-3.7-6.6-7.7-11.9-8.3
	C959.6,248.6,959.9,251.9,963.2,256z M946.3,274l11.2,12c6.2,7.5,11.7,17,15.5,26c13.7,33,10.5,71.3-9.7,101
	c-5.2,7.6-12.4,15.7-19.3,21.8l-7.9,6.5c-6.8,6.4-1.5,10.3,2,10.1c2.9-0.2,6.8-3.6,9-5.4c7.7-6.1,14.6-13.2,20.6-21
	c26.3-34.2,31.4-84.4,12.2-123c-5.6-11.2-11-20-19.8-29c-3.6-3.7-6.6-7.9-11.9-8.4C943.1,266.5,943.4,270.1,946.3,274z M926.3,296
	l6.5,7c5.8,6.6,10.9,14.7,13.8,23c9.2,26.2,6.1,52.8-11.3,75c-3,3.8-8.7,9.5-12.3,12.7l-8.3,6.8c-2.9,3.8-0.7,8.7,4.3,8
	c6.2-0.9,18.5-13.6,22.7-18.5c21.1-24.7,25.6-61.3,13.3-91c-4.1-9.9-8.8-16.9-15.7-25c-3.5-4.1-6.4-7.6-12.1-7.5
	C922.3,288.8,923.4,292.3,926.3,296z M479,314.9c-14.2-9.8-38.5-23.7-56-23.9h-5c-18.1,0-36,9.9-51,19.3c-7.2,4.5-19.8,12.4-25,18.7
	c14.8,11.8,27.1,19.8,44,28.3c9.7,4.8,24,10,35,9.4c16.1-0.9,36.3-12,50-20.2c7.5-4.6,20.5-11.9,26-18.4L479,314.9z M440.5,312
	c11.9,15.2,3.9,38.9-15.5,42.5c-29.2,5.5-43.1-30.4-22-47.1c3.5-2.8,6.7-3.9,11-4.9C424.3,301,433.8,303.5,440.5,312z M907.5,319.2
	c2.8,3.1,4.8,5.2,7.1,8.8c10.2,16.5,10.1,37.1-1.3,53c-6.8,9.6-16.1,14.4-17.7,16.4c-3.2,3.7-0.8,8.4,3.6,8.2
	c6.1-0.3,16.8-11,20.5-15.6c14.6-18.5,16.8-45.6,4.9-66c-3.7-6.4-8.7-14.6-16.4-16.1C900.4,309.9,903.9,315.1,907.5,319.2z M390,308
	l-4.9,11.7c-3.3,11.7,0.4,18.9,4.9,29.3c-8.2-2.6-27.8-14.4-33-21C363.7,322.4,381.9,310.6,390,308z M482,329
	c-7.7,5.1-24.7,16.4-33,19c4.9-9.6,7.5-17.2,4.5-28l-4.5-12C458.3,312,475.6,321.5,482,329z"/>
</svg>
